<svg xmlns="http://www.w3.org/2000/svg" width="831" height="127" fill="none">
  <path fill="#fff" d="m612.831 107.806-10.723-14.69c-1.608-2.252-2.627-3.646-5.146-3.646h-.537v-1.608h16.352v1.608h-.697c-1.447 0-2.788.375-2.788 1.233 0 .59.644 1.287.965 1.769l8.096 11.366 6.648-9.596c.965-1.555 1.662-2.466 1.662-3.485 0-1.126-2.305-1.287-3.056-1.287h-.965v-1.608h11.205v1.608c-1.823 0-3.324 1.287-4.182 2.466l-9.972 14.1v12.813c0 4.557 1.609 4.825 4.45 4.825h1.018v1.608h-17.799v-1.608h1.018c3.163 0 4.45-.858 4.45-4.396l.001-11.472ZM331.801 89.47h-1.232c-1.982 0-2.786.803-2.786 1.5 0 .268.215 1.018.482 1.714l9.161 23.84h.107l8.518-22.286c.643-1.661.697-2.625.697-3 0-1.554-1.607-1.768-3.429-1.768h-.911v-1.607h12.433v1.607h-1.825c-.964 0-1.983.16-2.839 1.875-.428.75-13.929 34.714-13.929 34.714h-1.982l-13.607-33.536c-1.019-2.518-2.144-3.054-4.501-3.054h-.536v-1.607h16.179v1.608Zm-162.583 3.914c0-3.859-1.984-3.913-4.129-3.913h-.643v-1.608h16.566v1.608h-.643c-2.143 0-4.288.055-4.288 3.913v18.497c0 6.809 2.52 11.527 10.186 11.527 7.076 0 10.186-4.504 10.186-11.741l-.004-23.804h7.778v1.608H203.1c-1.447 0-3.431.055-3.431 3.913v17.103c0 12.117-6.433 15.601-14.421 15.601-10.293 0-16.03-3.753-16.03-13.348V93.384Zm87.612 21.338.108-.106V94.511c0-4.396-3.056-5.04-4.664-5.04h-1.18v-1.608h14.101v1.608h-.805c-2.251 0-4.61.43-4.61 6.81v29.807h-1.876l-27.61-30.773v22.087c0 4.664.912 6.274 5.039 6.274h.912v1.608h-14.207v-1.608h.751c3.698 0 4.825-2.52 4.825-6.809v-22.57c0-3.003-2.466-4.826-4.88-4.826h-.696v-1.608h10.937l23.855 26.859Zm25.959 8.954h.751c1.929 0 3.967-.268 3.967-3.056V92.527c0-2.788-2.037-3.056-3.967-3.056h-.751v-1.608h16.352v1.608h-.751c-1.931 0-3.968.268-3.968 3.056v28.092c0 2.788 2.037 3.056 3.968 3.056h.751v1.608h-16.352v-1.607Zm85.583 0h.749c1.931 0 3.968-.268 3.968-3.056V92.527c0-2.788-2.037-3.056-3.968-3.056h-.749v-1.608h27.073l.108 8.417h-1.608c-.268-3.484-.912-6.058-6.541-6.058h-7.452v14.046h6.38c3.216 0 3.913-1.822 4.235-4.717h1.608v12.544h-1.608c-.322-3.216-.482-5.147-4.182-5.147h-6.433v12.493c0 3.484 3.11 3.484 6.541 3.484 6.433 0 9.274-.242 10.883-6.353h1.5c-.696 2.843-1.823 8.712-1.823 8.712h-28.681v-1.608Zm52.799-30.13c0-3.915-2.143-4.076-3.806-4.076h-.965v-1.608h16.942c6.755 0 12.758 1.823 12.758 9.436 0 4.824-3.216 7.772-7.451 9.435l9.166 13.725c1.502 2.251 2.574 2.896 5.201 3.217v1.608h-9.538s-7.666-11.205-11.152-17.37h-4.295v11.472c0 4.129 1.931 4.29 4.397 4.29h.965v1.608H416.4v-1.608h.965c1.984 0 3.806-.912 3.806-2.896V93.546Zm6.862 12.437h2.627c5.362 0 8.256-2.037 8.256-8.362 0-4.772-3.055-7.828-7.827-7.828-1.608 0-2.306.161-3.056.215v15.975Zm60.153-10.32c-.376-3.484-2.627-6.675-6.327-6.675-4.235 0-6.594 2.52-6.594 6.756 0 8.899 16.083 6.218 16.083 19.085 0 7.398-6.111 11.258-12.974 11.258-3.003 0-8.525-2.412-8.525-2.412l-.912-8.311h1.502c.643 4.558 3.216 8.364 8.309 8.364 3.645 0 6.594-2.306 6.594-6.111 0-9.489-15.762-6.541-15.762-19.46 0-6.97 4.933-11.098 11.848-11.098 1.502 0 7.721.804 7.721.804l.535 7.8h-1.498Zm22.204 28.013h.751c1.929 0 3.967-.268 3.967-3.056V92.527c0-2.788-2.037-3.056-3.967-3.056h-.751v-1.608h16.352v1.608h-.751c-1.931 0-3.968.268-3.968 3.056v28.092c0 2.788 2.037 3.056 3.968 3.056h.751v1.608H510.39v-1.607Zm40.483-33.133c-4.021 0-3.86.951-4.664 4.866h-1.448v-9.1h1.448c.429 1.607 2.09 1.554 3.539 1.554h27.663c1.447 0 2.279.055 2.385-1.555h1.448v9.101h-1.448c-.108-1.983-.884-4.866-4.477-4.866h-8.792v28.522c0 4.129 1.876 4.611 4.45 4.611h1.018v1.608h-17.799v-1.608h1.019c2.947 0 4.449-.268 4.449-4.504V90.543h-8.791Zm78.37-57.283v2.53h1.1c3.122 0 6.414.847 6.414 4.306v3.81c0 7.74-.378 15.117-9.368 15.117-16.119 0-22.787-14.853-22.787-28.776 0-14.094 7.426-25.234 22.533-25.234 9.873 0 15.06 3.63 17.59 14.007l2.533-.167-1.013-11.7s-6.247-3.577-9.539-4.335c-3.289-.76-4.929-1.517-10.163-1.517-17.045 0-33.756 10.21-33.756 29.789 0 20.337 14.265 31.647 33.168 31.647 9.549 0 13.231-1.99 15.971-4.702l2.931 3.436h2.833V33.26h-18.447ZM435.258 58.991h1.185c3.048 0 6.263-.423 6.263-4.825V9.818c0-4.402-3.216-4.824-6.263-4.824h-1.185v-2.54h46.294l.17 13.29h-2.539c-.423-5.503-1.438-9.565-10.326-9.565h-15.318v22.174h10.072c5.077 0 6.178-2.878 6.685-7.448h2.54v20.072h-2.54c-.507-5.079-.761-8.392-6.601-8.392h-10.156v19.72c0 5.501 4.909 5.501 10.326 5.501 10.156 0 14.642-.383 17.181-10.03h2.369l-2.876 13.753h-45.28v-2.538h-.001ZM263.89 1.186c18.027 0 32.414 11.171 32.414 29.199 0 19.466-13.965 32.416-31.991 32.416-17.943 0-31.655-12.187-31.655-30.385.001-17.605 13.628-31.23 31.232-31.23Zm1.268 57.889c16.42 0 19.298-14.472 19.298-26.83 0-12.356-6.687-27.337-20.736-27.337-14.812 0-19.212 13.204-19.212 24.545 0 15.15 6.941 29.622 20.65 29.622Zm59.634-5.84c0 3.385 2.371 4.402 5.079 4.74 3.469.254 7.278.254 11.171-.168 3.555-.423 6.601-2.455 8.125-4.57 1.354-1.863 2.115-4.233 2.624-6.095h2.455c-.932 4.825-2.117 9.565-3.132 14.388h-44.687v-2.539h1.185c3.046 0 6.347-.423 6.347-5.67V9.818c0-4.402-3.301-4.824-6.347-4.824h-1.185v-2.54h26.237v2.54h-2.117c-3.216 0-5.754.084-5.754 4.57v43.671h-.001Zm40.179 5.756h1.185c3.048 0 6.263-.423 6.263-4.825V9.818c0-4.402-3.216-4.824-6.263-4.824h-1.185v-2.54h27.167c20.821 0 33.6 11.68 33.6 29.368 0 16.927-12.545 29.708-31.399 29.708h-29.368v-2.539Zm18.281-7.194c0 5.924 2.708 6.685 8.802 6.685 14.388 0 21.836-12.018 21.836-25.05 0-22.346-11.341-27.93-24.882-27.93-1.947 0-3.894.253-5.756.422v45.873Zm165.66-6.94.168-.17V12.95c0-6.94-4.824-7.955-7.362-7.955h-1.863v-2.54h22.26v2.54h-1.269c-3.555 0-7.366.676-7.366 10.748V62.8h-2.876l-43.587-48.582v34.87c0 7.364 1.438 9.903 7.955 9.903h1.44v2.54h-22.429v-2.54h1.185c5.84 0 7.618-3.978 7.618-10.749V12.61c0-4.74-3.893-7.616-7.702-7.616h-1.1v-2.54h17.266l37.662 42.403Zm121.314 11.172c0 2.539 3.555 2.962 6.347 2.962h.931v2.539h-19.38v-2.54h.507c3.3 0 6.094-1.946 7.362-5.501l13.542-38.847c1.1-3.132 3.132-10.494 3.132-10.494l8.972-3.555 16.334 46.38c1.016 2.963 2.031 6.093 3.132 8.633 1.016 2.369 2.794 3.385 5.586 3.385h.507v2.539H700.57l-6.562-20.905h-19.212s-4.57 13.88-4.57 15.404Zm14.219-44.096h-.17l-7.871 23.952h15.828l-7.787-23.952Zm40.123-5.247c-6.347 0-6.093 1.503-7.363 7.681h-2.201V0h2.201c.677 2.54 3.301 2.454 5.586 2.454h44.846c2.285 0 3.596.084 3.766-2.454h2.285v14.367h-2.285c-.17-3.132-1.397-7.681-7.067-7.681h-13.881v45.025c0 6.517 2.964 7.28 7.026 7.28h1.608v2.539h-28.1v-2.539h1.608c4.655 0 7.025-.423 7.025-7.11V6.686h-15.054Zm57.725 52.305h1.185c3.048 0 6.263-.423 6.263-4.825V9.818c0-4.402-3.216-4.824-6.263-4.824h-1.185v-2.54h44.945l.17 13.29h-2.539c-.423-5.503-1.438-9.565-10.326-9.565h-13.969v22.174h10.072c5.077 0 6.178-2.878 6.685-7.448h2.54v20.072h-2.54c-.507-5.079-.761-8.392-6.601-8.392h-10.156v19.72c0 5.501 4.909 5.501 10.326 5.501 10.156 0 14.642-.383 17.181-10.03h2.369l-2.876 13.753h-45.28l-.001-2.538ZM202.149 33.26v2.53h1.1c3.122 0 6.414.847 6.414 4.306v3.81c0 7.74-.378 15.117-9.368 15.117-16.119 0-22.787-14.853-22.787-28.776 0-14.094 7.426-25.234 22.533-25.234 9.873 0 15.06 3.63 17.59 14.007l2.533-.167-1.014-11.7s-6.247-3.577-9.539-4.335c-3.289-.76-4.929-1.517-10.163-1.517-17.045 0-33.756 10.21-33.756 29.789 0 20.337 14.265 31.647 33.168 31.647 9.549 0 13.231-1.99 15.971-4.702l2.931 3.436h2.833V33.26h-18.446ZM64.82 59.187l-.154-8.763c-.019-1.098-2.127-2.452-4.699-2.452h-9.146c-2.571 0-4.68 1.354-4.699 2.452l-.154 8.763s-.156 1.41 1.642 1.41h15.583c1.8 0 1.627-1.41 1.627-1.41Zm-7.58 9.093h-3.69c-3.763 0-6.834 1.346-6.861 3.016l-.215 13.557c-.013.803 1.413 1.456 3.186 1.456h11.469c1.772 0 3.199-.652 3.186-1.456L64.1 71.296c-.026-1.67-3.098-3.016-6.86-3.016Zm41.378 27.482a150.153 150.153 0 0 1-8.212-10.86l7.024 37.878 8.442 1.568-7.254-28.586ZM80.973 69.186l5.53 51.564 7.79 1.447-7.796-43.283a145.144 145.144 0 0 1-5.524-9.728ZM8.012 100.541c-4.661 5.125-7.878 7.876-8.012 7.99v16.731l1.545-.287 6.467-24.434ZM77.03 60.94a133.572 133.572 0 0 1-5.311-14.306l.788 12.045c.02.308.223.573.515.674l.167.058a.8.8 0 0 1 .539.704l3.954 58.997 5.606 1.041L77.03 60.94Zm-49.541 59.215 5.619-1.044 3.954-58.997a.802.802 0 0 1 .539-.704l.166-.058a.766.766 0 0 0 .515-.674l.791-12.097a133.79 133.79 0 0 1-5.327 14.358l-6.257 59.216Zm75.275-19.614 6.466 24.431 1.559.29v-16.72s-3.263-2.765-8.025-8.001Z"/>
  <path fill="#fff" d="M0 1.718v95.568c27.187-23.782 42.022-72.864 42.022-72.864l1.049-2.102h1.12l1.028 2.1h20.352l1.028-2.1h1.12l1.049 2.102.008.065c.421 1.38 15.211 49.375 42.014 72.809V1.718H0Z"/>
  <path fill="#fff" d="M62.28 30.379H48.509c-1.386 0-2.541 1.694-2.557 2.557l-.131 7.07v.35c-.016.893 2.19 1.268 4.33 1.268h10.487c2.14 0 4.346-.375 4.33-1.267v-.351l-.131-7.07c-.015-.864-1.171-2.557-2.557-2.557Zm2.352 74.479c-.08-5.093-2.738-7.487-5.304-7.487H51.46c-3.134 0-5.223 2.394-5.304 7.487l-.188 11.864 9.426-1.751 9.426 1.751-.188-11.864ZM4.904 124.351l8.442-1.568 7.025-37.88a150.084 150.084 0 0 1-8.212 10.86L4.904 124.35Zm11.579-2.151 7.79-1.447 5.53-51.567a145.584 145.584 0 0 1-5.524 9.728L16.483 122.2Z"/>
</svg>
